<svg width="346" height="101" viewBox="0 0 346 101" fill="none" xmlns="http://www.w3.org/2000/svg">
<g clip-path="url(#clip0_1_322)">
<path fill-rule="evenodd" clip-rule="evenodd" d="M4.05049 8.0777C5.15732 8.07635 6.0967 7.67416 6.90207 6.88224C7.70881 6.08899 8.10097 5.13932 8.10097 4.03324C8.10097 2.92715 7.6976 1.98866 6.90207 1.18423C6.10654 0.379809 5.15415 -0.0112305 4.04488 -0.0112305C2.93562 -0.0112305 1.99443 0.402155 1.1989 1.19541C0.403368 1.98866 0 2.93833 0 4.03324C0 5.12815 0.403368 6.07782 1.1989 6.88224C1.99309 7.67416 2.94362 8.07635 4.05049 8.0777ZM4.05049 8.0777L4.05609 8.07771H4.04488L4.05049 8.0777ZM4.0448 46.9807C4.98599 46.9807 5.73671 46.6902 6.31935 46.0981C6.89079 45.5059 7.18211 44.7574 7.18211 43.8636V16.636C7.18211 15.6975 6.89079 14.949 6.31935 14.368C5.74791 13.7982 4.98599 13.5077 4.0448 13.5077C3.10361 13.5077 2.39772 13.7982 1.80387 14.368C1.21002 14.9378 0.918701 15.6975 0.918701 16.636V43.8524C0.918701 44.7462 1.21002 45.4947 1.80387 46.0869C2.39772 46.679 3.14843 46.9695 4.0448 46.9695V46.9807ZM44.0454 43.9194V28.8699V28.8588C44.0454 26.5349 43.6084 24.6355 42.7569 23.1719C41.9053 21.7083 40.7513 20.6134 39.2947 19.8984C37.8493 19.1833 36.1798 18.8258 34.2974 18.8258C32.5831 18.8258 31.0256 19.1721 29.6362 19.8648C28.2469 20.5575 27.1376 21.4849 26.3197 22.6468C25.4905 23.8088 25.0871 25.1495 25.0871 26.6578V43.9082C25.0871 44.8132 24.7958 45.5506 24.2244 46.1427C23.6417 46.7349 22.8574 47.0254 21.9498 47.0254C21.0423 47.0254 20.3027 46.7349 19.7089 46.1427C19.1151 45.5506 18.8237 44.802 18.8237 43.9082V16.6248C18.8237 15.6863 19.1151 14.9266 19.7089 14.3568C20.3027 13.787 21.0086 13.4965 21.9498 13.4965C22.891 13.4965 23.6529 13.787 24.2244 14.3568C24.7958 14.9377 25.0871 15.6863 25.0871 16.6248V17.2952C25.9947 16.4014 27.0255 15.6193 28.2132 14.9713C30.3869 13.787 32.6951 13.1948 35.5187 13.1948C38.3423 13.1948 40.8633 13.7981 43.093 15.0048C45.3228 16.2114 47.0819 17.9655 48.3704 20.3006C49.659 22.6356 50.2976 25.4846 50.2976 28.8699V43.9194C50.2976 44.8244 50.0063 45.5617 49.4125 46.1539C48.8186 46.746 48.0791 47.0365 47.1715 47.0365C46.264 47.0365 45.5244 46.746 44.9306 46.1539C44.3368 45.5617 44.0454 44.8132 44.0454 43.9194ZM74.9704 40.8581H72.8863C71.5754 40.8581 70.4773 40.3106 69.5697 39.2045C68.6734 38.0984 68.2252 36.7354 68.2252 35.1042V19.9989H73.4353C74.2981 19.9989 74.9928 19.7531 75.5194 19.2615C76.046 18.7699 76.3149 18.1554 76.3149 17.4292C76.3149 16.6136 76.046 15.9656 75.5194 15.474C74.9816 14.9824 74.2869 14.7366 73.4353 14.7366H68.2252V5.93262C68.2252 5.03882 67.9338 4.30143 67.3624 3.73163C66.791 3.16182 66.0515 2.87134 65.1551 2.87134C64.2587 2.87134 63.5192 3.16182 62.9478 3.73163C62.3763 4.30143 62.085 5.03882 62.085 5.93262V14.7366H59.2614C58.3987 14.7366 57.704 14.9824 57.1774 15.474C56.6507 15.9656 56.3818 16.6136 56.3818 17.4292C56.3818 18.1666 56.6507 18.7699 57.1774 19.2615C57.704 19.7531 58.4099 19.9989 59.2614 19.9989H62.085V35.1042C62.085 37.3499 62.5556 39.3609 63.4968 41.1597C64.438 42.9585 65.7265 44.3663 67.3624 45.4165C68.9983 46.4555 70.8359 46.9806 72.8863 46.9806H73.9956C75.06 46.9806 75.9228 46.7013 76.6063 46.1203C77.2785 45.5505 77.6147 44.8132 77.6147 43.9193C77.6147 43.0255 77.357 42.2882 76.8528 41.7184C76.3373 41.1486 75.7211 40.8581 74.9816 40.8581H74.9704ZM100.114 13.2729C103.307 13.2729 106.052 13.9768 108.338 15.3846L108.327 15.3957C110.612 16.8035 112.36 18.7363 113.57 21.2055C114.781 23.6746 115.386 26.5236 115.386 29.7413C115.386 30.5122 115.117 31.1491 114.59 31.663C114.052 32.1658 113.38 32.4227 112.562 32.4227H89.2564C89.4805 33.8193 89.9174 35.1041 90.6009 36.2773C91.6206 38.0314 93.0323 39.4167 94.8363 40.4335C96.6402 41.4502 98.7019 41.9641 101.032 41.9641C102.299 41.9641 103.598 41.7295 104.932 41.2602C106.254 40.791 107.329 40.2547 108.147 39.6402C108.764 39.1933 109.425 38.9587 110.142 38.9363C110.859 38.914 111.486 39.1263 112.013 39.5732C112.708 40.1877 113.077 40.858 113.122 41.5954C113.156 42.3328 112.831 42.9696 112.136 43.4947C110.747 44.6008 109.01 45.4946 106.949 46.1873C104.887 46.88 102.915 47.2264 101.032 47.2264C97.6375 47.2264 94.6122 46.5113 91.9791 45.0589C89.346 43.6065 87.2731 41.6066 85.7829 39.0592C84.2927 36.5119 83.542 33.6182 83.542 30.2776C83.542 26.937 84.2479 23.9874 85.6597 21.4401C87.0715 18.8816 89.0211 16.8929 91.5197 15.4404C94.0184 13.9992 96.9204 13.2729 100.114 13.2729ZM100.125 18.5352C97.7943 18.5352 95.7999 19.0492 94.1416 20.0659C92.4833 21.0826 91.2284 22.4791 90.3656 24.2556C89.8838 25.2723 89.5477 26.3672 89.3348 27.5291H109.739C109.559 26.1661 109.201 24.9036 108.652 23.764C107.867 22.1551 106.769 20.8815 105.335 19.943C103.912 19.0045 102.164 18.5352 100.125 18.5352ZM143.308 19.0269C143.834 19.1498 144.327 19.1721 144.775 19.0827C145.224 19.0045 145.627 18.8034 145.974 18.5017C146.322 18.2001 146.557 17.7532 146.68 17.1834C146.96 16.0773 146.501 15.1388 145.302 14.3344C144.092 13.5411 142.266 13.1389 139.812 13.1389C137.358 13.1389 135.106 13.7087 133.067 14.8483C131.688 15.6192 130.512 16.5912 129.503 17.7308V16.5689C129.503 15.5522 129.246 14.7813 128.742 14.2785C128.226 13.7646 127.464 13.5188 126.445 13.5188C125.425 13.5188 124.708 13.7869 124.17 14.312C123.632 14.8371 123.375 15.5969 123.375 16.5801V43.9193C123.375 44.936 123.643 45.7069 124.17 46.2097C124.697 46.7237 125.459 46.9694 126.445 46.9694C127.431 46.9694 128.237 46.7013 128.742 46.1762C129.257 45.6511 129.503 44.8913 129.503 43.9082V26.0432C129.503 24.1662 130.109 22.6133 131.319 21.3954C132.529 20.1776 134.176 19.3397 136.26 18.8928C138.344 18.4459 140.697 18.4906 143.319 19.0157L143.308 19.0269ZM176.552 43.9193V41.5954H176.529C175.454 42.9249 174.199 44.0757 172.731 44.9919C170.367 46.4778 167.678 47.2264 164.697 47.2264C161.717 47.2264 159.039 46.4778 156.664 44.9919C154.288 43.5059 152.417 41.4837 151.05 38.9363C149.683 36.389 149 33.4953 149 30.2776C149 27.0599 149.75 24.1662 151.24 21.5965C152.731 19.0268 154.759 16.9934 157.313 15.5075C159.868 14.0215 162.736 13.2729 165.93 13.2729C169.123 13.2729 171.991 14.0215 174.524 15.5075C177.056 16.9934 179.073 19.0268 180.563 21.5965C182.053 24.155 182.804 27.0599 182.804 30.2776V43.9193C182.804 44.8243 182.513 45.5617 181.919 46.1538C181.325 46.746 180.585 47.0364 179.678 47.0364C178.77 47.0364 178.031 46.746 177.437 46.1538C176.843 45.5617 176.552 44.8131 176.552 43.9193ZM160.383 40.2212C162.042 41.2155 163.891 41.7183 165.941 41.7183C168.025 41.7183 169.885 41.2155 171.521 40.2212C173.157 39.2156 174.445 37.8526 175.387 36.1208C176.328 34.3891 176.798 32.4786 176.798 30.2776C176.798 28.0766 176.328 26.1102 175.387 24.3785C174.445 22.6467 173.157 21.2725 171.521 20.2781C169.885 19.2838 167.991 18.781 165.941 18.781C163.891 18.781 162.042 19.2838 160.383 20.2781C158.736 21.2837 157.425 22.6467 156.462 24.3785C155.498 26.1102 155.016 28.1101 155.016 30.2776C155.016 32.4451 155.498 34.3891 156.462 36.1208C157.414 37.8526 158.725 39.2268 160.383 40.2212ZM219.13 41.2044C219.051 40.4894 218.659 39.8526 217.964 39.2716C217.438 38.8247 216.821 38.6347 216.127 38.6906C215.432 38.7465 214.76 39.0481 214.099 39.5732C213.202 40.3106 212.205 40.8469 211.118 41.1933C210.031 41.5396 208.777 41.7184 207.342 41.7184C205.169 41.7184 203.275 41.2156 201.639 40.2212C200.003 39.2269 198.726 37.8638 197.807 36.1544C196.888 34.445 196.429 32.4787 196.429 30.2777C196.429 27.9538 196.877 25.9315 197.774 24.2221C198.67 22.5127 199.925 21.172 201.516 20.2112C203.107 19.2503 204.956 18.7699 207.04 18.7699C210.02 18.7699 212.519 19.8313 214.525 21.9541C215.096 22.5239 215.735 22.8814 216.429 23.0267C217.124 23.1719 217.763 23.0267 218.334 22.6245C219.074 22.0993 219.522 21.4848 219.679 20.7922C219.847 20.0995 219.634 19.4291 219.062 18.7699C217.471 16.9376 215.667 15.5634 213.662 14.6361C211.656 13.7199 209.449 13.2618 207.04 13.2618C203.813 13.2618 200.944 13.9881 198.446 15.4293C195.947 16.8818 193.986 18.8816 192.552 21.4513C191.118 24.021 190.401 26.9594 190.401 30.2553C190.401 33.5512 191.129 36.3667 192.575 38.9141C194.02 41.4614 196.026 43.4836 198.592 44.9696C201.146 46.4555 204.059 47.2041 207.331 47.2041C211.746 47.2041 215.432 45.841 218.379 43.1038C218.95 42.534 219.197 41.886 219.118 41.1821L219.13 41.2044ZM241.214 40.8581H243.298H243.309C244.049 40.8581 244.665 41.1486 245.18 41.7184C245.685 42.2882 245.942 43.0255 245.942 43.9193C245.942 44.8132 245.606 45.5505 244.934 46.1203C244.25 46.7013 243.388 46.9806 242.323 46.9806H241.214C239.163 46.9806 237.326 46.4555 235.69 45.4165C234.054 44.3663 232.766 42.9585 231.824 41.1597C230.883 39.3609 230.413 37.3499 230.413 35.1042V19.9989H227.589C226.738 19.9989 226.032 19.7531 225.505 19.2615C224.978 18.7699 224.709 18.1666 224.709 17.4292C224.709 16.6136 224.978 15.9656 225.505 15.474C226.032 14.9824 226.726 14.7366 227.589 14.7366H230.413V5.93262C230.413 5.03882 230.704 4.30143 231.275 3.73163C231.847 3.16182 232.586 2.87134 233.483 2.87134C234.379 2.87134 235.119 3.16182 235.69 3.73163C236.261 4.30143 236.553 5.03882 236.553 5.93262V14.7366H241.763C242.615 14.7366 243.309 14.9824 243.847 15.474C244.374 15.9656 244.643 16.6136 244.643 17.4292C244.643 18.1554 244.374 18.7699 243.847 19.2615C243.32 19.7531 242.626 19.9989 241.763 19.9989H236.553V35.1042C236.553 36.7354 237.001 38.0984 237.897 39.2045C238.805 40.3106 239.903 40.8581 241.214 40.8581ZM257.349 8.07771C258.458 8.07771 259.399 7.67549 260.206 6.88224C261.013 6.08899 261.405 5.13932 261.405 4.03324C261.405 2.92715 261.002 1.98866 260.206 1.18423C259.41 0.379809 258.458 -0.0112305 257.349 -0.0112305C256.24 -0.0112305 255.298 0.390982 254.492 1.18423C253.696 1.97749 253.293 2.92715 253.293 4.03324C253.293 5.13932 253.696 6.07782 254.492 6.88224C255.287 7.67549 256.24 8.07771 257.349 8.07771ZM255.108 14.3792C255.702 13.8093 256.452 13.5189 257.349 13.5189V13.5077C258.29 13.5077 259.052 13.7982 259.623 14.368C260.195 14.949 260.486 15.6975 260.486 16.636V43.8636C260.486 44.7574 260.195 45.5059 259.623 46.0981C259.041 46.6902 258.245 46.9807 257.349 46.9807C256.452 46.9807 255.702 46.6902 255.108 46.0981C254.514 45.5059 254.223 44.7574 254.223 43.8636V16.6472C254.223 15.7087 254.514 14.949 255.108 14.3792ZM302.078 39.0592C303.512 36.5119 304.229 33.5847 304.229 30.2776C304.229 26.9705 303.501 23.9874 302.055 21.4401C300.599 18.8927 298.604 16.8929 296.072 15.4404C293.54 13.9992 290.638 13.2729 287.366 13.2729C284.094 13.2729 281.125 13.9992 278.593 15.4404C276.061 16.8929 274.066 18.8816 272.609 21.4401C271.153 23.9874 270.436 26.937 270.436 30.2776C270.436 33.6182 271.164 36.5119 272.609 39.0592C274.055 41.6066 276.049 43.6065 278.593 45.0589C281.125 46.5113 284.049 47.2264 287.366 47.2264C290.683 47.2264 293.607 46.5002 296.139 45.0589C298.672 43.6065 300.655 41.6177 302.089 39.0592H302.078ZM293.002 40.2547C291.366 41.2379 289.484 41.7183 287.355 41.7183C285.226 41.7183 283.344 41.2267 281.708 40.2547C280.072 39.2715 278.783 37.9308 277.842 36.2214C276.901 34.512 276.43 32.5345 276.43 30.2888C276.43 28.0431 276.901 26.0544 277.842 24.3226C278.783 22.5909 280.072 21.239 281.708 20.2558C283.344 19.2726 285.226 18.7922 287.355 18.7922C289.484 18.7922 291.366 19.2838 293.002 20.2558C294.638 21.239 295.915 22.5909 296.834 24.3226C297.753 26.0544 298.212 28.0431 298.212 30.2888C298.212 32.5345 297.753 34.512 296.834 36.2214C295.915 37.9308 294.638 39.2827 293.002 40.2547ZM319.803 43.9194C319.803 44.8244 319.512 45.5617 318.941 46.1539V46.1427C318.358 46.7349 317.574 47.0254 316.666 47.0254C315.759 47.0254 315.019 46.7349 314.425 46.1427C313.831 45.5506 313.54 44.802 313.54 43.9082V16.6248C313.54 15.6863 313.831 14.9266 314.425 14.3568C315.019 13.787 315.725 13.4965 316.666 13.4965C317.607 13.4965 318.369 13.787 318.941 14.3568C319.512 14.9377 319.803 15.6863 319.803 16.6248V17.2952C320.711 16.4014 321.742 15.6193 322.93 14.9713C325.103 13.787 327.411 13.1948 330.235 13.1948C333.059 13.1948 335.58 13.7981 337.809 15.0048C340.039 16.2114 341.798 17.9655 343.087 20.3006C344.375 22.6356 345.014 25.4846 345.014 28.8699V43.9194C345.014 44.8244 344.723 45.5617 344.129 46.1539C343.535 46.746 342.795 47.0365 341.888 47.0365C340.98 47.0365 340.241 46.746 339.647 46.1539C339.053 45.5617 338.762 44.8132 338.762 43.9194V28.8699C338.762 26.546 338.325 24.6467 337.473 23.1831C336.622 21.7195 335.468 20.6246 334.011 19.9095C332.566 19.1945 330.896 18.837 329.014 18.837C327.299 18.837 325.742 19.1833 324.353 19.876C322.963 20.5687 321.854 21.496 321.036 22.658C320.207 23.8199 319.803 25.1606 319.803 26.6689V43.9194ZM23.709 69.2699C21.4121 68.0967 18.8238 67.5046 15.9442 67.5046C13.3783 67.5046 11.0477 68.0744 8.91886 69.214C7.18213 70.1413 5.73673 71.3703 4.53783 72.8563V55.7287C4.53783 55.1701 4.38097 54.7344 4.05603 54.4104C3.7311 54.0863 3.29412 53.9299 2.73388 53.9299C2.21847 53.9299 1.78149 54.0863 1.44535 54.4104C1.10921 54.7344 0.929932 55.1701 0.929932 55.7287V98.866C0.929932 99.3799 1.098 99.8157 1.44535 100.151C1.78149 100.486 2.21847 100.665 2.73388 100.665C3.29412 100.665 3.7311 100.497 4.05603 100.151C4.38097 99.8157 4.53783 99.3799 4.53783 98.866V80.5542C4.53783 78.7554 5.04204 77.1465 6.03926 75.7053C7.03647 74.264 8.40344 73.1467 10.1178 72.32C11.8321 71.5044 13.7817 71.091 15.933 71.091C18.0843 71.091 20.1011 71.5155 21.8378 72.3758C23.5746 73.2361 24.9527 74.521 25.9724 76.2304C26.992 77.951 27.5074 80.1184 27.5074 82.7551V98.8436C27.5074 99.3576 27.6755 99.7933 28.0228 100.128C28.3589 100.464 28.7959 100.642 29.3113 100.642C29.8268 100.642 30.2637 100.475 30.5999 100.128C30.936 99.7821 31.1153 99.3576 31.1153 98.8436V82.7551C31.1153 79.4481 30.4542 76.6661 29.1321 74.4092C27.8099 72.1524 26.006 70.443 23.6978 69.2587L23.709 69.2699ZM57.0429 67.6163C60.0009 67.6163 62.6228 68.309 64.8973 69.6833V69.6721C67.1831 71.0463 68.9646 72.9456 70.242 75.3589C71.5193 77.7722 72.158 80.5542 72.158 83.7048C72.158 84.2299 72.0011 84.6321 71.6762 84.9338C71.3624 85.2355 70.9366 85.3807 70.4212 85.3807H45.278C45.4012 87.5258 45.9054 89.4699 46.8354 91.1793C47.9223 93.168 49.4237 94.7321 51.3397 95.8717C53.2557 97.0114 55.463 97.5812 57.9392 97.5812C59.4967 97.5812 61.0653 97.313 62.6452 96.7767C64.2251 96.2404 65.48 95.5366 66.3988 94.6539C66.7125 94.3299 67.1046 94.1624 67.564 94.14C68.0234 94.1177 68.4044 94.2517 68.7293 94.531C69.1775 94.8886 69.4016 95.2908 69.424 95.7265C69.4464 96.1622 69.2559 96.5645 68.8526 96.922C67.5752 98.0839 65.9057 99.0336 63.8441 99.7933C61.7936 100.553 59.8216 100.933 57.9392 100.933C54.7795 100.933 51.9784 100.229 49.5133 98.8101C47.0483 97.4024 45.1211 95.436 43.7205 92.9222C42.3199 90.4084 41.6252 87.5817 41.6252 84.3081C41.6252 81.0346 42.2863 78.1521 43.6085 75.6606C44.9306 73.1691 46.7458 71.2139 49.0651 69.7726C51.3845 68.3314 54.0848 67.6163 57.0429 67.6163ZM50.9475 72.6775C49.166 73.8059 47.7654 75.3813 46.7458 77.37C46.0063 78.8336 45.5357 80.4648 45.334 82.2747H68.6957C68.5613 80.476 68.1355 78.8448 67.4296 77.37C66.466 75.3813 65.099 73.8171 63.3175 72.6775C61.5359 71.5379 59.4407 70.9681 57.0429 70.9681C54.7571 70.9681 52.7291 71.5379 50.9475 72.6775ZM104.439 69.7503C101.918 68.2979 99.0604 67.5717 95.8559 67.5717C92.6513 67.5717 89.783 68.2979 87.2507 69.7503C84.7072 71.2027 82.7128 73.2026 81.2562 75.7276C79.7996 78.2638 79.0713 81.124 79.0713 84.3082C79.0713 87.4923 79.7996 90.2967 81.2562 92.8328C82.7128 95.369 84.7184 97.3577 87.2507 98.8102C89.7942 100.263 92.6626 100.989 95.8559 100.989C98.7803 100.989 101.38 100.363 103.654 99.1006C105.884 97.8717 107.666 96.2069 108.999 94.1177V98.8325C108.999 99.3464 109.167 99.7822 109.514 100.117C109.85 100.453 110.299 100.631 110.87 100.631C111.386 100.631 111.811 100.464 112.125 100.117C112.45 99.7822 112.607 99.3464 112.607 98.8325V84.297C112.607 81.1016 111.879 78.2415 110.422 75.7165C108.965 73.1803 106.971 71.1916 104.45 69.7391L104.439 69.7503ZM102.612 95.8941C100.629 97.0672 98.3881 97.6594 95.8671 97.6594C93.346 97.6594 91.1499 97.0672 89.1443 95.8941C87.1386 94.721 85.5588 93.1233 84.4047 91.1123C83.2394 89.1012 82.668 86.8332 82.668 84.3193C82.668 81.8055 83.2506 79.4816 84.4047 77.4705C85.57 75.4595 87.1386 73.8618 89.1443 72.6887C91.1387 71.5156 93.3796 70.9234 95.8671 70.9234C98.3545 70.9234 100.64 71.5156 102.612 72.6887C104.596 73.8618 106.153 75.4595 107.296 77.4705C108.439 79.4816 109.01 81.772 109.01 84.3193C109.01 86.8667 108.439 89.1012 107.296 91.1123C106.153 93.1233 104.596 94.721 102.612 95.8941ZM130.299 97.0561H131.8L131.789 97.0449C132.226 97.0449 132.585 97.2013 132.865 97.5254C133.145 97.8494 133.291 98.2851 133.291 98.8437C133.291 99.3577 133.134 99.7934 132.809 100.129C132.484 100.475 132.047 100.643 131.487 100.643H130.288C128.775 100.643 127.419 100.229 126.243 99.3912C125.066 98.5532 124.148 97.3913 123.486 95.9165C122.825 94.4417 122.5 92.7323 122.5 90.7771V55.7176C122.5 55.159 122.68 54.7232 123.016 54.3992C123.352 54.0752 123.789 53.9188 124.304 53.9188C124.865 53.9188 125.302 54.0752 125.627 54.3992C125.952 54.7232 126.108 55.159 126.108 55.7176V90.7771C126.108 92.6094 126.489 94.1177 127.274 95.2908C128.047 96.464 129.055 97.0561 130.299 97.0561ZM156.82 97.0002H155.498C153.224 97.0002 151.364 96.274 149.918 94.8216C148.473 93.3691 147.756 91.481 147.756 89.1682V72.3535H155.678C156.159 72.3535 156.551 72.2083 156.843 71.9066C157.145 71.605 157.291 71.2139 157.291 70.7447C157.291 70.2754 157.145 69.8732 156.843 69.5827C156.54 69.2922 156.148 69.1358 155.678 69.1358H147.756V59.3822C147.756 58.8236 147.588 58.3766 147.24 58.0303C146.904 57.6951 146.445 57.5164 145.885 57.5164C145.369 57.5164 144.932 57.6839 144.596 58.0303C144.26 58.3766 144.081 58.8236 144.081 59.3822V69.1358H139.397C138.915 69.1358 138.523 69.2811 138.232 69.5827C137.929 69.8844 137.784 70.2754 137.784 70.7447C137.784 71.2139 137.929 71.6161 138.232 71.9066C138.534 72.2083 138.927 72.3535 139.397 72.3535H144.081V89.1682C144.081 91.3581 144.563 93.3244 145.526 95.0562C146.49 96.7879 147.823 98.151 149.549 99.123C151.263 100.106 153.224 100.609 155.431 100.654H156.809C157.369 100.654 157.818 100.486 158.154 100.14C158.49 99.8045 158.669 99.3688 158.669 98.8549C158.669 98.2962 158.501 97.8493 158.154 97.503C157.818 97.1678 157.358 96.989 156.809 96.989L156.82 97.0002ZM183.286 67.5046C186.166 67.5046 188.754 68.0967 191.051 69.2699L191.04 69.2587C193.348 70.443 195.152 72.1524 196.474 74.4092C197.796 76.6661 198.457 79.4481 198.457 82.7551V98.8436C198.457 99.3576 198.278 99.7821 197.942 100.128C197.606 100.475 197.169 100.642 196.653 100.642C196.138 100.642 195.701 100.464 195.365 100.128C195.017 99.7933 194.849 99.3576 194.849 98.8436V82.7551C194.849 80.1184 194.334 77.951 193.314 76.2304C192.295 74.521 190.916 73.2361 189.18 72.3758C187.443 71.5155 185.426 71.091 183.275 71.091C181.123 71.091 179.174 71.5044 177.46 72.32C175.745 73.1467 174.378 74.264 173.381 75.7053C172.384 77.1465 171.88 78.7554 171.88 80.5542V98.866C171.88 99.3799 171.723 99.8157 171.398 100.151C171.073 100.497 170.636 100.665 170.076 100.665C169.56 100.665 169.123 100.486 168.787 100.151C168.44 99.8157 168.272 99.3799 168.272 98.866V55.7287C168.272 55.1701 168.451 54.7344 168.787 54.4104C169.123 54.0863 169.56 53.9299 170.076 53.9299C170.636 53.9299 171.073 54.0863 171.398 54.4104C171.723 54.7344 171.88 55.1701 171.88 55.7287V72.8563C173.079 71.3703 174.524 70.1413 176.261 69.214C178.39 68.0744 180.72 67.5046 183.286 67.5046ZM231.399 69.0912C229.281 68.1192 226.939 67.6276 224.373 67.6276C221.371 67.6276 218.715 68.3538 216.396 69.8062C214.076 71.2587 212.261 73.2474 210.939 75.7612C209.617 78.275 208.956 81.124 208.956 84.3194C208.956 87.5147 209.662 90.2967 211.085 92.8105C212.508 95.3244 214.446 97.3131 216.9 98.7878C219.365 100.263 222.155 101 225.27 101C229.628 101 233.27 99.6593 236.194 96.9891C236.553 96.6651 236.721 96.2852 236.71 95.8271C236.687 95.369 236.474 94.9557 236.082 94.5981C235.757 94.2741 235.388 94.1401 234.939 94.1736C234.502 94.2183 234.099 94.397 233.741 94.7099C232.665 95.7042 231.388 96.4416 229.931 96.922C228.474 97.4025 226.917 97.6371 225.281 97.6371C222.76 97.6371 220.553 97.0449 218.648 95.8718C216.743 94.6987 215.253 93.101 214.177 91.09C213.102 89.0789 212.553 86.8109 212.553 84.297C212.553 81.7832 213.046 79.4146 214.02 77.4147C214.995 75.426 216.384 73.8507 218.155 72.6887C219.936 71.538 222.009 70.957 224.362 70.957C228.317 70.957 231.578 72.4765 234.144 75.5042C234.469 75.9064 234.839 76.1299 235.287 76.1969C235.724 76.2528 236.127 76.1522 236.486 75.8729C236.923 75.5936 237.18 75.2361 237.27 74.8003C237.348 74.3646 237.225 73.9401 236.911 73.549C235.354 71.5603 233.516 70.0744 231.388 69.0912H231.399ZM263.433 67.5717C266.637 67.5717 269.495 68.2979 272.016 69.7503L272.027 69.7391C274.548 71.1916 276.542 73.1803 277.999 75.7165C279.455 78.2415 280.184 81.1016 280.184 84.297V98.8325C280.184 99.3464 280.027 99.7822 279.702 100.117C279.388 100.464 278.962 100.631 278.447 100.631C277.876 100.631 277.427 100.453 277.091 100.117C276.744 99.7822 276.576 99.3464 276.576 98.8325V94.1177C275.242 96.2069 273.461 97.8717 271.231 99.1006C268.957 100.363 266.357 100.989 263.433 100.989C260.239 100.989 257.371 100.263 254.828 98.8102C252.295 97.3577 250.29 95.369 248.833 92.8328C247.376 90.2967 246.648 87.4923 246.648 84.3082C246.648 81.124 247.376 78.2638 248.833 75.7276C250.29 73.2026 252.284 71.2027 254.828 69.7503C257.36 68.2979 260.228 67.5717 263.433 67.5717ZM263.444 97.6594C265.965 97.6594 268.206 97.0672 270.189 95.8941C272.172 94.721 273.73 93.1233 274.873 91.1123C276.016 89.1012 276.587 86.8667 276.587 84.3193C276.587 81.772 276.016 79.4816 274.873 77.4705C273.73 75.4595 272.172 73.8618 270.189 72.6887C268.217 71.5156 265.931 70.9234 263.444 70.9234C260.957 70.9234 258.716 71.5156 256.721 72.6887C254.716 73.8618 253.147 75.4595 251.982 77.4705C250.828 79.4816 250.245 81.8055 250.245 84.3193C250.245 86.8332 250.816 89.1012 251.982 91.1123C253.136 93.1233 254.716 94.721 256.721 95.8941C258.727 97.0672 260.923 97.6594 263.444 97.6594ZM308.733 68.0968C307.893 67.7393 306.716 67.5605 305.193 67.5605C302.952 67.5605 300.912 68.1192 299.075 69.2364C297.383 70.2643 295.993 71.6721 294.873 73.4261V69.7169C294.873 69.1582 294.716 68.7225 294.391 68.3985C294.066 68.0745 293.629 67.9181 293.069 67.9181C292.554 67.9181 292.117 68.0745 291.781 68.3985C291.444 68.7225 291.265 69.1582 291.265 69.7169V98.8549C291.265 99.3688 291.433 99.8046 291.781 100.14C292.117 100.475 292.554 100.654 293.069 100.654C293.629 100.654 294.066 100.486 294.391 100.14C294.716 99.8046 294.873 99.3688 294.873 98.8549V80.666C294.873 78.789 295.31 77.1243 296.195 75.6718C297.069 74.2194 298.29 73.0686 299.859 72.2307C301.417 71.3927 303.198 70.9793 305.204 70.9793C305.966 70.9793 306.649 71.0352 307.277 71.1246C307.893 71.2251 308.431 71.214 308.868 71.0911C309.305 70.9682 309.585 70.6107 309.708 70.0185C309.91 69.1024 309.585 68.4655 308.744 68.108L308.733 68.0968ZM338.728 69.6833C341.014 71.0575 342.795 72.9568 344.073 75.3701V75.3589C345.35 77.7722 345.989 80.5542 345.989 83.7048C345.989 84.2299 345.832 84.6321 345.507 84.9338C345.193 85.2355 344.767 85.3807 344.252 85.3807H319.109C319.232 87.5258 319.736 89.4699 320.666 91.1793C321.753 93.168 323.254 94.7321 325.17 95.8717C327.086 97.0114 329.294 97.5812 331.77 97.5812C333.327 97.5812 334.896 97.313 336.476 96.7767C338.056 96.2404 339.311 95.5366 340.23 94.6539C340.543 94.3299 340.935 94.1624 341.395 94.14C341.854 94.1177 342.235 94.2517 342.56 94.531C343.008 94.8886 343.232 95.2908 343.255 95.7265C343.277 96.1622 343.087 96.5645 342.683 96.922C341.406 98.0839 339.737 99.0336 337.675 99.7933C335.624 100.553 333.652 100.933 331.77 100.933C328.61 100.933 325.809 100.229 323.344 98.8101C320.879 97.4024 318.952 95.436 317.551 92.9222C316.151 90.4084 315.456 87.5817 315.456 84.3081C315.456 81.0346 316.117 78.1521 317.439 75.6606C318.761 73.1691 320.577 71.2139 322.896 69.7726C325.215 68.3314 327.916 67.6163 330.874 67.6163C333.832 67.6163 336.442 68.309 338.728 69.6833ZM324.79 72.6775C323.008 73.8059 321.607 75.3813 320.588 77.37C319.848 78.8336 319.378 80.4648 319.176 82.2747H342.538C342.403 80.476 341.977 78.8448 341.272 77.37C340.308 75.3813 338.941 73.8171 337.159 72.6775C335.378 71.5379 333.283 70.9681 330.885 70.9681C328.599 70.9681 326.571 71.5379 324.79 72.6775Z" fill="url(#paint0_linear_1_322)"/>
</g>
<defs>
<linearGradient id="paint0_linear_1_322" x1="5.65244e-08" y1="56.5" x2="346" y2="57" gradientUnits="userSpaceOnUse">
<stop stop-color="#0050FF"/>
<stop offset="0.296875" stop-color="#A73DD1"/>
<stop offset="0.729167" stop-color="#F34990"/>
<stop offset="1" stop-color="#FFA500"/>
</linearGradient>
<clipPath id="clip0_1_322">
<rect width="346" height="101" fill="white"/>
</clipPath>
</defs>
</svg>
